<?xml version="1.0" encoding="UTF-8"?>
<svg version="1.1" xmlns="http://www.w3.org/2000/svg" width="274" height="162">
<path d="M0 0 C90.42 0 180.84 0 274 0 C274 53.46 274 106.92 274 162 C183.58 162 93.16 162 0 162 C0 108.54 0 55.08 0 0 Z " fill="#A066CB" transform="translate(0,0)"/>
<path d="M0 0 C3.21672063 0.0611479 6.4210234 0.02092751 9.63769531 -0.03051758 C11.68721371 -0.02031444 13.73671303 -0.00423497 15.78613281 0.01831055 C16.74253662 0.00322952 17.69894043 -0.0118515 18.68432617 -0.02738953 C22.66124591 0.112056 25.21070729 0.22319054 28.08496094 3.13337708 C29.64714598 5.4415797 30.95989426 7.76633056 32.22363281 10.2487793 C32.82949219 11.2478833 33.43535156 12.2469873 34.05957031 13.27636719 C34.82140625 14.61042603 34.82140625 14.61042603 35.59863281 15.97143555 C36.47648437 17.501875 36.47648437 17.501875 37.37207031 19.06323242 C37.98308594 20.13508789 38.59410156 21.20694336 39.22363281 22.3112793 C40.5564453 24.6357991 41.88978525 26.96001019 43.22363281 29.28393555 C43.55919189 29.86930084 43.89475098 30.45466614 44.24047852 31.05776978 C47.53748661 36.80612609 50.87760273 42.52887009 54.22363281 48.2487793 C63.11022435 63.4591485 71.92611664 78.71033274 80.65722656 94.01049805 C81.02446838 94.65393158 81.39171021 95.29736511 81.77008057 95.96029663 C83.55575143 99.08959511 85.33987161 102.21976323 87.12158203 105.35131836 C87.7598291 106.47119141 88.39807617 107.59106445 89.05566406 108.74487305 C89.62003174 109.73672607 90.18439941 110.7285791 90.76586914 111.75048828 C91.85701836 113.62048157 93.02267403 115.44734112 94.22363281 117.2487793 C94.46414185 119.20402527 94.46414185 119.20402527 94.45068359 121.44482422 C94.450457 122.7057917 94.450457 122.7057917 94.45022583 123.99223328 C94.43990326 124.89544815 94.42958069 125.79866302 94.41894531 126.72924805 C94.41611542 127.65723709 94.41328552 128.58522614 94.41036987 129.54133606 C94.39917118 132.50644808 94.37406716 135.4712585 94.34863281 138.4362793 C94.33860261 140.44604056 94.32947683 142.45580656 94.32128906 144.46557617 C94.29923285 149.39342683 94.26470511 154.32105192 94.22363281 159.2487793 C85.58426934 159.76158806 76.95021904 160.1507747 68.29889393 160.38864708 C64.27944723 160.50292259 60.27048289 160.657256 56.25708008 160.90844727 C30.38775589 162.48593057 30.38775589 162.48593057 23.52432251 157.15036011 C19.16373568 151.98822191 16.58352168 146.25716193 14.28120422 139.95213318 C12.74204243 136.01774259 10.58175021 132.58993238 8.28613281 129.0612793 C5.29983172 124.15139658 2.51890459 119.15854887 -0.22094727 114.10693359 C-7.17390527 101.3305595 -14.44362244 88.72992141 -21.87460327 76.22662354 C-22.89625675 74.50737917 -23.91602882 72.78701724 -24.93579102 71.06665039 C-28.02451777 65.8601011 -31.12770036 60.6638766 -34.27246094 55.4909668 C-35.29485841 53.78539469 -36.31701148 52.07967605 -37.33886719 50.3737793 C-38.0458374 49.23344238 -38.0458374 49.23344238 -38.76708984 48.07006836 C-39.18394043 47.36849609 -39.60079102 46.66692383 -40.03027344 45.9440918 C-40.39451416 45.34612793 -40.75875488 44.74816406 -41.1340332 44.13208008 C-42.04519971 41.46057175 -41.6005067 39.93732879 -40.77636719 37.2487793 C-39.78946866 35.27135584 -38.72479966 33.33186769 -37.60839844 31.42456055 C-36.96193359 30.31274414 -36.31546875 29.20092773 -35.64941406 28.05541992 C-34.96268312 26.89063679 -34.27583358 25.72592358 -33.58886719 24.5612793 C-32.59790039 22.86068359 -32.59790039 22.86068359 -31.58691406 21.12573242 C-30.27419734 18.87739726 -28.93588419 16.64380165 -27.57177734 14.42626953 C-25.70947334 11.3628211 -25.70947334 11.3628211 -24.75830078 8.22949219 C-20.8193709 -2.21565592 -9.46825546 -0.20649317 0 0 Z " fill="#1836B2" transform="translate(179.7763671875,2.751220703125)"/>
<path d="M0 0 C90.42 0 180.84 0 274 0 C274 39.6 274 79.2 274 120 C271.09376706 116.36720883 268.88279307 113.28033488 266.63671875 109.30078125 C266.00491699 108.18735352 265.37311523 107.07392578 264.72216797 105.92675781 C264.3910199 105.3385022 264.05987183 104.75024658 263.71868896 104.14416504 C262.30598842 101.63483426 260.88349907 99.13109703 259.46179199 96.62686157 C258.72633654 95.33106981 257.99139607 94.03498562 257.25695801 92.73861694 C253.66042284 86.39130399 250.02347747 80.06759138 246.375 73.75 C245.45122559 72.14983032 245.45122559 72.14983032 244.50878906 70.51733398 C238.62759329 60.33970969 232.70481881 50.18651833 226.7734375 40.03808594 C224.90804496 36.84247129 223.04729069 33.64419028 221.1875 30.4453125 C220.55980713 29.36652832 219.93211426 28.28774414 219.28540039 27.17626953 C218.09091249 25.12312016 216.89732755 23.06944507 215.70483398 21.01513672 C215.16157471 20.0820166 214.61831543 19.14889648 214.05859375 18.1875 C213.58736084 17.37667969 213.11612793 16.56585937 212.63061523 15.73046875 C212.09251221 14.82941406 211.55440918 13.92835937 211 13 C210.53852821 11.97640381 210.53852821 11.97640381 210.06773376 10.93212891 C208.89938174 8.60084057 207.84247988 6.85220457 206 5 C202.48871007 3.83995286 199.1212023 3.92727662 195.44921875 4 C194.43527542 3.98912354 193.42133209 3.97824707 192.37666321 3.96704102 C189.14585965 3.94089541 185.91821915 3.96971877 182.6875 4 C180.49412425 3.99190815 178.30075858 3.98023099 176.10742188 3.96484375 C170.7377042 3.9349986 165.36953839 3.95024794 160 4 C159.73807861 4.70342529 159.47615723 5.40685059 159.20629883 6.1315918 C157.91089922 9.21186907 156.37368123 12.00294744 154.69921875 14.89453125 C154.05146484 16.01537109 153.40371094 17.13621094 152.73632812 18.29101562 C152.39931885 18.87020752 152.06230957 19.44939941 151.71508789 20.04614258 C150.69770308 21.79496155 149.68534069 23.54660746 148.67382812 25.29882812 C145.21618511 31.26676785 141.70114017 37.17983181 138 43 C135.14604971 40.46477871 133.47925039 37.60639739 131.6015625 34.30078125 C130.95703125 33.17349609 130.3125 32.04621094 129.6484375 30.88476562 C128.97369121 29.69416176 128.29921377 28.5034055 127.625 27.3125 C126.30699224 24.99476797 124.98577327 22.67890799 123.6640625 20.36328125 C123.03918945 19.26709473 122.41431641 18.1709082 121.77050781 17.04150391 C120.2429305 14.41732324 118.66182252 11.84868774 117.0234375 9.29296875 C115 6 115 6 115 4 C89.57552629 1.12610732 89.57552629 1.12610732 65.69042969 6.96484375 C61.04595292 11.90801953 58.91225667 17.75409147 56.96533203 24.1640625 C55.51297117 28.43078575 53.13711883 31.91629561 50.625 35.625 C47.86978331 39.43342023 47.86978331 39.43342023 47.24316406 43.86865234 C48.15167677 46.42714136 49.34807131 48.6415602 50.6953125 51 C51.51769409 52.44693237 51.51769409 52.44693237 52.35668945 53.9230957 C52.94023193 54.93847412 53.52377441 55.95385254 54.125 57 C54.7130542 58.03278076 55.3011084 59.06556152 55.90698242 60.12963867 C59.51502546 66.45479459 63.16582365 72.75203197 66.92578125 78.98828125 C68 81 68 81 68 83 C66.71536865 82.89413574 65.4307373 82.78827148 64.10717773 82.67919922 C40.76242265 79.78907538 40.76242265 79.78907538 19.50927734 86.40576172 C14.39978938 92.37597745 11.69911744 99.19324653 9.25488281 106.58837891 C7.22609499 112.10399779 4.286692 117.13642695 1 122 C0.67 122 0.34 122 0 122 C0 81.74 0 41.48 0 0 Z " fill="#FEFEFE" transform="translate(0,0)"/>
<path d="M0 0 C0.51506104 0.91692627 1.03012207 1.83385254 1.56079102 2.77856445 C2.31175049 4.00700073 2.31175049 4.00700073 3.07788086 5.26025391 C3.79258545 6.56289185 3.79258545 6.56289185 4.52172852 7.8918457 C5.06829102 8.87999268 5.61485352 9.86813965 6.17797852 10.88623047 C7.0480957 12.47262329 7.0480957 12.47262329 7.93579102 14.09106445 C12.72216253 22.7280266 17.57089385 31.31995325 22.56079102 39.84106445 C23.41060547 41.29403931 23.41060547 41.29403931 24.27758789 42.77636719 C27.35983453 48.03925979 30.45474521 53.29460227 33.55297852 58.5480957 C34.20266602 59.65338623 34.85235352 60.75867676 35.52172852 61.89746094 C36.77574087 64.0307215 38.0334217 66.16183082 39.29516602 68.29052734 C39.85461914 69.24306396 40.41407227 70.19560059 40.99047852 71.17700195 C41.48789551 72.01924316 41.9853125 72.86148438 42.49780273 73.72924805 C43.56079102 75.77856445 43.56079102 75.77856445 43.56079102 77.77856445 C5.94079102 77.77856445 -31.67920898 77.77856445 -70.43920898 77.77856445 C-70.43920898 31.24348729 -70.43920898 31.24348729 -56.42822266 12.66088867 C-54.33926146 9.85217262 -54.33926146 9.85217262 -53.14746094 6.63452148 C-51.60016622 3.08351309 -50.49482466 1.19707188 -47.43920898 -1.22143555 C-41.12305945 -3.0409924 -34.42230315 -2.82563038 -27.90478516 -2.75317383 C-24.74794429 -2.72139765 -21.60119986 -2.77523648 -18.44506836 -2.8425293 C-16.43924454 -2.85926209 -14.43337319 -2.87114886 -12.42749023 -2.87768555 C-11.48577469 -2.89085815 -10.54405914 -2.90403076 -9.57380676 -2.91760254 C-3.08096622 -2.80589647 -3.08096622 -2.80589647 0 0 Z " fill="#86C7ED" transform="translate(70.439208984375,84.221435546875)"/>
<path d="M0 0 C2.8946858 3.46782406 5.28058639 6.98048267 7.53125 10.89453125 C8.17707031 12.01537109 8.82289063 13.13621094 9.48828125 14.29101562 C9.81908691 14.87020752 10.14989258 15.44939941 10.49072266 16.04614258 C11.49280732 17.79991194 12.50169883 19.54961926 13.51171875 21.29882812 C16.8655543 27.13958964 19.98183416 32.96366832 23 39 C8.15 39 -6.7 39 -22 39 C-20.53529287 35.33823218 -19.09691673 32.22336939 -17.171875 28.83203125 C-16.61886719 27.85556641 -16.06585938 26.87910156 -15.49609375 25.87304688 C-14.91988281 24.86306641 -14.34367188 23.85308594 -13.75 22.8125 C-13.18925781 21.82185547 -12.62851563 20.83121094 -12.05078125 19.81054688 C-1.85357786 1.85357786 -1.85357786 1.85357786 0 0 Z " fill="#FDFCFE" transform="translate(183,123)"/>
<path d="M0 0 C3.17249227 2.91836498 5.21208486 5.80361109 7.27734375 9.578125 C7.87353516 10.65707031 8.46972656 11.73601562 9.08398438 12.84765625 C9.69564453 13.97042969 10.30730469 15.09320313 10.9375 16.25 C12.15306711 18.46457507 13.37047749 20.67813951 14.58984375 22.890625 C15.45585205 24.46360352 15.45585205 24.46360352 16.33935547 26.06835938 C17.80507282 28.65588274 19.33676852 31.16911492 20.94140625 33.671875 C23 37 23 37 23 39 C8.15 39 -6.7 39 -22 39 C-18.47051009 31.94102018 -15.0426231 25.10380784 -11 18.375 C-10.57283691 17.65642822 -10.14567383 16.93785645 -9.70556641 16.19750977 C-8.47462001 14.12910098 -7.23815084 12.06410193 -6 10 C-5.34773438 8.90816406 -4.69546875 7.81632813 -4.0234375 6.69140625 C-2.68669973 4.4582306 -1.34630174 2.22741792 0 0 Z " fill="#FDFDFE" transform="translate(91,123)"/>
<path d="M0 0 C2.78101667 3.47627083 4.8996542 6.33847944 7.0234375 10.1328125 C7.84328125 11.59074219 7.84328125 11.59074219 8.6796875 13.078125 C9.23914062 14.08359375 9.79859375 15.0890625 10.375 16.125 C10.92671875 17.10726562 11.4784375 18.08953125 12.046875 19.1015625 C15.74919778 25.70664539 19.38413881 32.34725236 23 39 C15.41 39 7.82 39 0 39 C0 26.13 0 13.26 0 0 Z " fill="#FDFEFE" transform="translate(0,123)"/>
<path d="M0 0 C0.33 0 0.66 0 1 0 C1 12.21 1 24.42 1 37 C-6.26 37 -13.52 37 -21 37 C-16.817494 29.29404955 -12.56685945 21.6314136 -8.25 14 C-7.67378906 12.97777344 -7.09757812 11.95554688 -6.50390625 10.90234375 C-5.95089844 9.92394531 -5.39789063 8.94554687 -4.828125 7.9375 C-4.3321582 7.05964844 -3.83619141 6.18179688 -3.32519531 5.27734375 C-2.27946885 3.48026629 -1.15332712 1.72999068 0 0 Z " fill="#FBFCFD" transform="translate(273,125)"/>
</svg>
