<svg width="300" height="100" viewBox="0 0 257 80" fill="none" xmlns="http://www.w3.org/2000/svg">
<path d="M60.2029 63.7934L47 52.9567L52.71 46L65.9128 56.8367L60.2029 63.7934Z" fill="white"/>
<path d="M41.2449 46.4695L26 33.9567L31.71 27L46.9549 39.5127L41.2449 46.4695Z" fill="white"/>
<path d="M0 43.4346L45.8342 79.0393L51.6621 71.537L14.9401 43.0107L32.0817 34.8L36.4115 15.3706L73.1335 43.8968L79.5749 35.6048L33.7407 -1.32322e-05L24.5387 11.8458L20.6308 25.9047L9.20202 31.5888L0 43.4346Z" fill="white"/>
<path d="M107.885 31.7953C107.771 30.6494 107.283 29.7593 106.421 29.1248C105.56 28.4903 104.39 28.1731 102.913 28.1731C101.909 28.1731 101.062 28.3151 100.37 28.5992C99.6791 28.8739 99.1488 29.2574 98.7794 29.7498C98.4196 30.2422 98.2397 30.8009 98.2397 31.4259C98.2207 31.9468 98.3296 32.4013 98.5664 32.7896C98.8126 33.1778 99.1488 33.514 99.5749 33.7981C100.001 34.0727 100.493 34.3142 101.052 34.5225C101.611 34.7214 102.207 34.8918 102.842 35.0339L105.456 35.6589C106.725 35.943 107.889 36.3218 108.95 36.7953C110.01 37.2687 110.929 37.8511 111.706 38.5424C112.482 39.2337 113.083 40.0481 113.51 40.9856C113.945 41.9231 114.168 42.9979 114.177 44.21C114.168 45.9903 113.713 47.5339 112.814 48.8407C111.923 50.1381 110.635 51.1466 108.95 51.8663C107.274 52.5765 105.252 52.9316 102.885 52.9316C100.536 52.9316 98.4906 52.5718 96.7482 51.8521C95.0152 51.1324 93.6611 50.067 92.6857 48.656C91.7198 47.2356 91.2131 45.479 91.1658 43.3862H97.1175C97.1838 44.3615 97.4631 45.1759 97.9556 45.8293C98.4575 46.4733 99.1251 46.961 99.9584 47.2924C100.801 47.6144 101.753 47.7754 102.814 47.7754C103.855 47.7754 104.76 47.6239 105.527 47.3208C106.303 47.0178 106.904 46.5964 107.331 46.0566C107.757 45.5168 107.97 44.8966 107.97 44.1958C107.97 43.5424 107.776 42.9932 107.387 42.5481C107.009 42.103 106.45 41.7242 105.711 41.4117C104.982 41.0992 104.087 40.8151 103.027 40.5595L99.859 39.764C97.4063 39.1674 95.4698 38.2346 94.0493 36.9657C92.6289 35.6968 91.9234 33.9875 91.9328 31.8379C91.9234 30.0765 92.3921 28.5377 93.3391 27.2214C94.2955 25.9051 95.6071 24.8776 97.2738 24.139C98.9404 23.4004 100.834 23.031 102.956 23.031C105.115 23.031 106.999 23.4004 108.609 24.139C110.228 24.8776 111.488 25.9051 112.387 27.2214C113.287 28.5377 113.751 30.0623 113.779 31.7953H107.885ZM121.936 60.7015C121.169 60.7015 120.45 60.6399 119.777 60.5168C119.114 60.4032 118.565 60.2564 118.13 60.0765L119.493 55.5595C120.203 55.7773 120.843 55.8956 121.411 55.9146C121.988 55.9335 122.486 55.8009 122.902 55.5168C123.328 55.2328 123.674 54.7498 123.939 54.068L124.294 53.1447L116.468 30.7015H122.831L127.348 46.7242H127.576L132.135 30.7015H138.542L130.061 54.8776C129.654 56.0519 129.1 57.0746 128.399 57.9458C127.708 58.8265 126.832 59.5036 125.772 59.9771C124.711 60.46 123.433 60.7015 121.936 60.7015ZM159.792 36.9231L154.252 37.264C154.157 36.7905 153.953 36.3644 153.641 35.9856C153.328 35.5973 152.917 35.2896 152.405 35.0623C151.903 34.8256 151.302 34.7072 150.601 34.7072C149.664 34.7072 148.873 34.906 148.229 35.3038C147.585 35.692 147.263 36.2129 147.263 36.8663C147.263 37.3871 147.471 37.8274 147.888 38.1873C148.305 38.5471 149.02 38.836 150.033 39.0538L153.982 39.8492C156.103 40.2848 157.685 40.9856 158.726 41.9515C159.768 42.9174 160.289 44.1864 160.289 45.7583C160.289 47.1882 159.867 48.443 159.024 49.5225C158.191 50.6021 157.045 51.4449 155.587 52.0509C154.138 52.6475 152.467 52.9458 150.573 52.9458C147.685 52.9458 145.383 52.3445 143.669 51.1418C141.965 49.9297 140.966 48.282 140.672 46.1987L146.624 45.8862C146.804 46.7668 147.239 47.4392 147.931 47.9032C148.622 48.3578 149.507 48.585 150.587 48.585C151.648 48.585 152.5 48.3814 153.144 47.9742C153.797 47.5576 154.129 47.0225 154.138 46.3691C154.129 45.8199 153.897 45.3701 153.442 45.0197C152.988 44.6598 152.287 44.3852 151.34 44.1958L147.561 43.443C145.431 43.0168 143.845 42.2782 142.803 41.2271C141.771 40.1759 141.255 38.836 141.255 37.2072C141.255 35.8057 141.633 34.5983 142.391 33.585C143.158 32.5718 144.233 31.7905 145.615 31.2413C147.007 30.692 148.636 30.4174 150.502 30.4174C153.257 30.4174 155.426 30.9998 157.007 32.1646C158.598 33.3293 159.526 34.9155 159.792 36.9231ZM175.704 30.7015V35.247H162.565V30.7015H175.704ZM165.548 25.4742H171.599V45.8151C171.599 46.3739 171.684 46.8095 171.855 47.122C172.025 47.425 172.262 47.6381 172.565 47.7612C172.877 47.8843 173.237 47.9458 173.644 47.9458C173.929 47.9458 174.213 47.9221 174.497 47.8748C174.781 47.818 174.999 47.7754 175.15 47.747L176.102 52.2498C175.799 52.3445 175.373 52.4534 174.823 52.5765C174.274 52.7091 173.607 52.7896 172.821 52.818C171.362 52.8748 170.084 52.6807 168.985 52.2356C167.896 51.7905 167.049 51.0992 166.443 50.1617C165.837 49.2242 165.538 48.0405 165.548 46.6106V25.4742ZM189.355 52.9458C187.11 52.9458 185.179 52.4913 183.559 51.5822C181.949 50.6636 180.709 49.3663 179.838 47.6901C178.966 46.0045 178.531 44.0112 178.531 41.71C178.531 39.4657 178.966 37.496 179.838 35.8009C180.709 34.1059 181.935 32.7848 183.517 31.8379C185.108 30.8909 186.973 30.4174 189.113 30.4174C190.553 30.4174 191.893 30.6494 193.133 31.1134C194.383 31.568 195.472 32.2545 196.4 33.1731C197.338 34.0917 198.067 35.247 198.588 36.639C199.109 38.0216 199.369 39.6409 199.369 41.497V43.1589H180.946V39.4089H193.673C193.673 38.5377 193.484 37.7659 193.105 37.0935C192.726 36.4212 192.2 35.8956 191.528 35.5168C190.865 35.1286 190.093 34.9345 189.213 34.9345C188.294 34.9345 187.48 35.1475 186.769 35.5737C186.069 35.9903 185.519 36.5538 185.122 37.264C184.724 37.9648 184.52 38.746 184.511 39.6078V43.1731C184.511 44.2526 184.71 45.1854 185.108 45.9714C185.515 46.7574 186.088 47.3634 186.826 47.7896C187.565 48.2157 188.441 48.4288 189.454 48.4288C190.127 48.4288 190.742 48.3341 191.301 48.1447C191.859 47.9553 192.338 47.6712 192.735 47.2924C193.133 46.9136 193.436 46.4496 193.644 45.9004L199.241 46.2697C198.957 47.6144 198.375 48.7886 197.494 49.7924C196.623 50.7867 195.496 51.5632 194.113 52.122C192.74 52.6712 191.154 52.9458 189.355 52.9458ZM203.318 52.5197V30.7015H209.085V34.5509H209.341C209.795 33.2725 210.553 32.264 211.613 31.5254C212.674 30.7867 213.943 30.4174 215.42 30.4174C216.916 30.4174 218.19 30.7915 219.241 31.5396C220.292 32.2782 220.993 33.282 221.343 34.5509H221.571C222.016 33.3009 222.821 32.3019 223.985 31.5538C225.16 30.7962 226.547 30.4174 228.147 30.4174C230.183 30.4174 231.836 31.0661 233.105 32.3634C234.383 33.6513 235.022 35.479 235.022 37.8464V52.5197H228.985V39.0396C228.985 37.8274 228.663 36.9184 228.019 36.3123C227.376 35.7062 226.571 35.4032 225.605 35.4032C224.506 35.4032 223.649 35.7536 223.034 36.4543C222.418 37.1456 222.11 38.0595 222.11 39.1958V52.5197H216.244V38.9117C216.244 37.8417 215.936 36.9894 215.321 36.3549C214.715 35.7204 213.914 35.4032 212.92 35.4032C212.248 35.4032 211.642 35.5737 211.102 35.9146C210.572 36.246 210.15 36.7148 209.838 37.3208C209.525 37.9174 209.369 38.6182 209.369 39.4231V52.5197H203.318Z" fill="white"/>
</svg>
